<svg width="135" height="172" viewBox="0 0 135 172" fill="none" xmlns="http://www.w3.org/2000/svg">
<g clip-path="url(#clip0)">
<path d="M96.8832 121.793C96.8633 121.004 96.7762 119.921 96.7364 119.467C96.7364 119.382 96.7364 119.315 96.7214 119.282C96.7214 119.107 96.7214 118.933 96.7214 118.756C96.6986 115.919 97.2365 113.106 98.3043 110.479C99.372 107.852 100.948 105.464 102.942 103.452C103.494 102.898 104.075 102.374 104.684 101.884C104.883 101.725 105.089 101.57 105.293 101.418C107.034 100.127 108.957 99.1046 110.999 98.3852C111.149 98.3382 111.307 98.3188 111.464 98.3278V97.6764C110.844 86.4705 101.596 57.7244 95.5047 48.0658L95.3753 47.911L94.3402 48.0184C89.9311 53.9183 84.8079 62.933 83.305 69.7789C83.1682 70.4028 83.0562 71.3162 82.9194 72.4718C82.0908 79.3825 80.3714 93.7356 67.4925 96.0866C54.6111 93.7356 52.8917 79.3825 52.0656 72.4718C51.9263 71.3162 51.8168 70.4028 51.68 69.7789C50.187 62.933 45.0539 53.9183 40.6448 48.0184L39.6097 47.911L39.4803 48.0658C33.3966 57.7069 24.148 86.453 23.5284 97.6589C23.5135 97.9085 23.5284 98.3203 23.5284 98.3203C23.7227 98.3135 23.9167 98.3423 24.1007 98.4052C26.1041 99.1225 27.9913 100.132 29.7017 101.4C29.9057 101.552 30.1097 101.707 30.3088 101.864C30.9169 102.354 31.4984 102.877 32.0505 103.429C34.0448 105.442 35.6214 107.831 36.6892 110.459C37.7569 113.087 38.2946 115.901 38.271 118.738C38.271 118.915 38.271 119.09 38.271 119.265C38.271 119.3 38.271 119.367 38.2561 119.457C38.2163 119.916 38.1292 120.997 38.1093 121.783C38.1093 121.888 38.1093 121.993 38.1093 122.085C38.1107 124.392 38.4597 126.686 39.1444 128.888C39.4962 130.028 39.9363 131.137 40.4607 132.208C41.5567 134.442 43.0005 136.486 44.7379 138.265C45.1128 138.651 45.5026 139.024 45.9073 139.385C48.3787 141.6 51.3011 143.249 54.4717 144.217L54.5787 144.25L54.7479 144.305L55.1386 142.949C54.9146 142.882 54.6907 142.812 54.4692 142.74C51.5571 141.785 48.8822 140.217 46.6239 138.14C46.2258 137.772 45.841 137.392 45.4694 137C44.7025 136.183 43.998 135.309 43.3619 134.387C42.6055 133.284 41.9508 132.114 41.4062 130.892C40.3707 128.569 39.7532 126.079 39.5823 123.54C39.55 123.058 39.5301 122.574 39.5301 122.087C39.5301 121.838 39.5301 121.518 39.5624 121.189C39.6072 120.328 39.6943 119.387 39.6943 119.375V119.327C39.6943 119.132 39.6943 118.938 39.6943 118.743C39.7329 112.89 37.5293 107.245 33.5385 102.975C33.0226 102.424 32.4826 101.9 31.9186 101.403C29.8688 99.6025 27.5132 98.1866 24.9641 97.2222C25.7902 86.3831 34.3422 59.681 40.1422 49.703C44.1954 55.3259 48.928 63.7915 50.3065 70.0684C50.4284 70.6274 50.5354 71.5084 50.6698 72.6265C51.0928 76.1655 51.8193 82.2102 54.4717 87.4912C54.8935 88.3326 55.3654 89.1477 55.885 89.9321C58.3185 93.5809 61.9314 96.5334 67.3805 97.4917L67.5025 97.5142L67.6244 97.4917C73.0735 96.5334 76.6864 93.5809 79.1199 89.9321C79.6395 89.1477 80.1115 88.3326 80.5332 87.4912C83.1856 82.2102 83.9122 76.1655 84.3352 72.6265C84.4695 71.5084 84.584 70.6299 84.6984 70.0684C86.0769 63.7915 90.807 55.3259 94.8627 49.703C100.653 59.686 109.205 86.3906 110.041 97.2222C107.491 98.186 105.136 99.6021 103.086 101.403C102.522 101.902 101.982 102.426 101.466 102.975C97.4717 107.243 95.2636 112.887 95.2982 118.741C95.2982 118.935 95.2982 119.13 95.2982 119.325V119.372C95.2982 119.385 95.3828 120.32 95.4301 121.181C95.45 121.516 95.4624 121.838 95.4624 122.087C95.4624 122.572 95.4425 123.053 95.4102 123.532C95.2373 126.066 94.6199 128.549 93.5863 130.867C93.0425 132.089 92.3887 133.259 91.6331 134.362C91.0737 135.176 90.4602 135.951 89.7968 136.683C89.4335 137.084 89.0503 137.476 88.6597 137.851C86.3688 140.043 83.6225 141.7 80.6178 142.702C80.4237 142.767 80.2271 142.83 80.0306 142.887L79.8688 142.939L80.2595 144.295L80.3963 144.252L80.4784 144.225L80.6228 144.18C83.8894 143.168 86.8883 141.434 89.3987 139.106C89.7968 138.737 90.1849 138.357 90.5557 137.968C92.1634 136.256 93.5054 134.312 94.5368 132.2C95.0607 131.13 95.5008 130.02 95.8531 128.881C96.5357 126.68 96.8838 124.389 96.8857 122.085C96.8881 121.995 96.8857 121.89 96.8832 121.793Z" fill="black"/>
<path d="M108.827 101.4L108.769 102.124C107.918 112.341 103.317 121.878 95.8555 128.886C95.5014 130.025 95.0605 131.136 94.5368 132.208C95.2716 131.609 95.9882 130.986 96.6866 130.338C104.404 123.194 109.237 113.455 110.27 102.972H120.048C117.881 130.311 94.9573 151.605 67.5 151.605C40.0426 151.605 17.1188 130.311 14.9491 102.972H24.7302C25.7638 113.456 30.5991 123.194 38.3183 130.338C39.0175 130.99 39.7391 131.616 40.4756 132.215C39.9519 131.143 39.511 130.033 39.1568 128.893C31.6898 121.886 27.0848 112.345 26.2356 102.124L26.1759 101.4H13.272L13.3243 102.236C14.2145 116.041 20.3093 128.988 30.3711 138.448C40.4329 147.909 53.7073 153.174 67.4987 153.174C81.2901 153.174 94.5645 147.909 104.626 138.448C114.688 128.988 120.783 116.041 121.673 102.236L121.728 101.4H108.827Z" fill="black"/>
<path d="M26.3078 102.972H30.4183C31.2002 109.84 33.8709 116.353 38.1317 121.785C38.1516 120.999 38.2387 119.919 38.2785 119.459C34.9358 114.704 32.8005 109.202 32.058 103.432C31.5058 102.879 30.9244 102.357 30.3163 101.867C30.1172 101.71 29.9132 101.555 29.7091 101.403H24.5959L24.6656 102.254C25.5416 113.002 30.415 123.027 38.3183 130.338C39.0175 130.99 39.7391 131.616 40.4756 132.215C39.9512 131.145 39.5111 130.035 39.1594 128.896C31.9044 122.088 27.3413 112.883 26.3078 102.972Z" fill="black"/>
<path d="M55.8851 132.674V134.299C63.4326 136.78 71.5724 136.78 79.1199 134.299V132.674C71.5838 135.226 63.4212 135.226 55.8851 132.674Z" fill="black"/>
<path d="M79.1249 138.567C71.543 140.821 63.4719 140.821 55.89 138.567V140.227C63.4883 142.365 71.5266 142.365 79.1249 140.227V138.567Z" fill="black"/>
<path d="M102.942 103.434C102.2 109.199 100.07 114.695 96.7364 119.449C96.7762 119.904 96.8633 120.987 96.8832 121.775C101.138 116.344 103.803 109.833 104.579 102.97H108.692C107.659 112.876 103.101 122.077 95.8531 128.886C95.5008 130.025 95.0607 131.135 94.5368 132.205C95.2717 131.606 95.9882 130.983 96.6866 130.336C104.586 123.022 109.457 112.998 110.334 102.251L110.402 101.4H105.301C105.097 101.552 104.89 101.707 104.691 101.867C104.08 102.357 103.496 102.88 102.942 103.434Z" fill="black"/>
<path d="M27.1261 109.997L16.1713 112.941L16.5776 114.462L27.5324 111.518L27.1261 109.997Z" fill="black"/>
<path d="M31.1152 120.191L21.2935 125.879L22.0785 127.242L31.9003 121.555L31.1152 120.191Z" fill="black"/>
<path d="M37.5982 129.009L29.5787 137.053L30.6889 138.166L38.7084 130.122L37.5982 129.009Z" fill="black"/>
<path d="M44.7379 138.265L40.4657 145.687L41.8267 146.476L45.9074 139.385C45.5043 139.024 45.1145 138.651 44.7379 138.265Z" fill="black"/>
<path d="M56.1462 140.214L53.2109 151.202L54.7274 151.609L57.6628 140.621L56.1462 140.214Z" fill="black"/>
<path d="M68.5127 141.849H66.9426V153.224H68.5127V141.849Z" fill="black"/>
<path d="M80.2545 144.295L79.8713 142.939L80.0331 142.887L79.319 140.214L77.8011 140.623L80.7372 151.605L82.2526 151.198L80.3914 144.255L80.2545 144.297V144.295Z" fill="black"/>
<path d="M89.3937 139.113L93.6237 146.473L94.9847 145.685L90.5458 137.975C90.18 138.37 89.7918 138.744 89.3937 139.113Z" fill="black"/>
<path d="M97.8578 128.997L96.7476 130.111L104.765 138.153L105.876 137.039L97.8578 128.997Z" fill="black"/>
<path d="M104.339 120.19L103.554 121.553L113.376 127.241L114.161 125.877L104.339 120.19Z" fill="black"/>
<path d="M108.906 109.674L108.498 111.201L119.499 114.159L119.907 112.631L108.906 109.674Z" fill="black"/>
<path d="M94.4522 48.9567C87.0066 42.3783 77.4248 38.749 67.5025 38.749C57.5802 38.749 47.9984 42.3783 40.5528 48.9567L39.6172 47.8935C47.3213 41.0868 57.2358 37.3315 67.5025 37.3315C77.7692 37.3315 87.6836 41.0868 95.3878 47.8935L94.4522 48.9567Z" fill="black"/>
<path d="M86.9354 61.74C80.9674 58.5002 74.2885 56.8036 67.5025 56.8036C60.7165 56.8036 54.0376 58.5002 48.0696 61.74L47.3953 60.4922C53.5711 57.1409 60.4821 55.386 67.5037 55.386C74.5254 55.386 81.4364 57.1409 87.6122 60.4922L86.9354 61.74Z" fill="black"/>
<path d="M85.323 65.4113C79.7681 62.7109 73.6754 61.3081 67.5025 61.3081C61.3296 61.3081 55.2369 62.7109 49.6819 65.4113L49.0624 64.1409C54.8105 61.3471 61.115 59.8957 67.5025 59.8957C73.8899 59.8957 80.1944 61.3471 85.9426 64.1409L85.323 65.4113Z" fill="black"/>
<path d="M67.5025 85.7991C66.756 84.132 63.5214 85.2326 61.8145 86.2708C63.1232 89.1559 66.3753 89.7 67.5025 89.8048C68.6296 89.7 71.8817 89.1559 73.1905 86.2708C71.4936 85.2326 68.249 84.132 67.5025 85.7991Z" fill="black"/>
<path d="M67.5025 81.9207L67.3258 81.8758C66.751 81.726 63.8423 80.9474 62.9217 80.1936L62.546 79.8842L62.6978 79.4224C65.0989 72.1074 64.4644 67.0036 60.956 65.4187C58.1643 64.1584 54.0761 65.6683 52.3767 68.5709L51.1575 67.8546C53.2277 64.3031 58.0797 62.5636 61.5358 64.1259C63.5114 65.0194 67.6692 68.2789 64.2056 79.3301C65.2709 79.7914 66.3708 80.1677 67.495 80.4557C68.6194 80.1681 69.7193 79.7917 70.7844 79.3301C67.3208 68.2789 71.4786 65.0194 73.4543 64.1259C76.9129 62.5611 81.7599 64.3031 83.8326 67.8546L82.6133 68.5709C80.9139 65.6583 76.8258 64.1584 74.0365 65.4187C70.5331 67.0036 69.8986 72.1074 72.2948 79.4224L72.4465 79.8842L72.0708 80.1936C71.1477 80.9424 68.239 81.726 67.6667 81.8758L67.5025 81.9207Z" fill="black"/>
<path d="M68.2116 38.0403H66.7958V55.3858H68.2116V38.0403Z" fill="black"/>
<path d="M56.4562 39.6069L55.0654 39.8589L58.175 57.1246L59.5658 56.8726L56.4562 39.6069Z" fill="black"/>
<path d="M50.0369 41.9685L48.7075 42.4496L54.3867 58.2374L55.7161 57.7563L50.0369 41.9685Z" fill="black"/>
<path d="M44.3594 45.1693L43.1463 45.8967L51.1689 59.3582L52.382 58.6308L44.3594 45.1693Z" fill="black"/>
<path d="M78.5514 39.6103L75.4388 56.8754L76.8295 57.1276L79.9421 39.8625L78.5514 39.6103Z" fill="black"/>
<path d="M84.9776 41.9822L79.293 57.7679L80.6222 58.2495L86.3069 42.4638L84.9776 41.9822Z" fill="black"/>
<path d="M90.6469 45.1674L82.6196 58.6261L83.8324 59.3539L91.8597 45.8952L90.6469 45.1674Z" fill="black"/>
<path d="M95.9053 49.3985H93.7057V50.8161H95.9053V49.3985Z" fill="black"/>
<path d="M41.2992 49.3985H39.0997V50.8161H41.2992V49.3985Z" fill="black"/>
<path d="M98.8738 55.3858H89.9038V56.8034H98.8738V55.3858Z" fill="black"/>
<path d="M45.0987 55.3858H36.2083V56.8034H45.0987V55.3858Z" fill="black"/>
<path d="M101.131 61.121H86.9055V62.5386H101.131V61.121Z" fill="black"/>
<path d="M48.1019 61.121H33.8744V62.5386H48.1019V61.121Z" fill="black"/>
<path d="M103.221 66.8538H84.8975V68.2714H103.221V66.8538Z" fill="black"/>
<path d="M49.6894 66.8538H31.7843V68.2714H49.6894V66.8538Z" fill="black"/>
<path d="M104.639 72.5891H83.437V74.0067H104.639V72.5891Z" fill="black"/>
<path d="M51.5705 72.5891H29.8834V74.0067H51.5705V72.5891Z" fill="black"/>
<path d="M106.853 78.3243H82.061V79.7419H106.853V78.3243Z" fill="black"/>
<path d="M52.2125 78.3243H28.1516V79.7419H52.2125V78.3243Z" fill="black"/>
<path d="M108.401 84.0596H80.9836V85.4772H108.401V84.0596Z" fill="black"/>
<path d="M54.0189 84.0596H26.6014V85.4772H54.0189V84.0596Z" fill="black"/>
<path d="M109.72 89.7948H79.8265V91.2124H109.72V89.7948Z" fill="black"/>
<path d="M79.8266 89.7948H77.8708V91.2124H79.8266V89.7948Z" fill="black"/>
<path d="M57.1341 89.7948H55.1784V91.2124H57.1341V89.7948Z" fill="black"/>
<path d="M55.1784 89.7948H25.2852V91.2124H55.1784V89.7948Z" fill="black"/>
<path d="M110.65 95.5276H79.8265V96.9451H110.65V95.5276Z" fill="black"/>
<path d="M55.1784 95.5276H24.3546V96.9451H55.1784V95.5276Z" fill="black"/>
<path d="M103.529 101.263H79.8241V102.68H103.529V101.263Z" fill="black"/>
<path d="M55.1784 101.263H31.4758V102.68H55.1784V101.263Z" fill="black"/>
<path d="M98.8762 106.998H79.8265V108.416H98.8762V106.998Z" fill="black"/>
<path d="M55.1809 106.998H36.2083V108.416H55.1809V106.998Z" fill="black"/>
<path d="M96.6368 112.733H79.8265V114.151H96.6368V112.733Z" fill="black"/>
<path d="M55.1784 112.733H38.3681V114.151H55.1784V112.733Z" fill="black"/>
<path d="M96.6368 118.469H79.8265V119.886H96.6368V118.469Z" fill="black"/>
<path d="M55.1784 118.469H38.9902V119.886H55.1784V118.469Z" fill="black"/>
<path d="M96.3184 124.201H79.8241V125.619H96.3184V124.201Z" fill="black"/>
<path d="M55.1784 124.201H38.5572V125.619H55.1784V124.201Z" fill="black"/>
<path d="M94.497 129.937H79.8265V131.354H94.497V129.937Z" fill="black"/>
<path d="M55.1809 129.937H40.1124V131.354H55.1809V129.937Z" fill="black"/>
<path d="M91.0508 135.672H79.8265V137.089H91.0508V135.672Z" fill="black"/>
<path d="M55.1784 135.672H43.6456V137.089H55.1784V135.672Z" fill="black"/>
<path d="M83.8798 141.407H79.8265V142.825H83.8798V141.407Z" fill="black"/>
<path d="M55.1809 141.407H51.1276V142.825H55.1809V141.407Z" fill="black"/>
<path d="M57.5372 73.4201C55.6748 73.423 53.8545 72.8648 52.312 71.8179L51.5656 71.3187L52.2224 70.7123C52.9838 70.0109 55.4223 68.5609 58.1145 68.5609C59.0298 68.5487 59.9374 68.7285 60.7794 69.0887C61.6214 69.4488 62.379 69.9814 63.0038 70.6524L63.5761 71.2488L62.9018 71.7255C61.331 72.8326 59.457 73.4246 57.5372 73.4201ZM54.004 71.174C55.1459 71.7406 56.4067 72.024 57.6805 72.0006C58.9543 71.9771 60.2039 71.6474 61.3243 71.0392C60.4046 70.3336 59.2748 69.9591 58.117 69.976C56.6631 70.0146 55.2434 70.4271 53.994 71.174H54.004Z" fill="black"/>
<path d="M57.6069 72.6265C57.2132 72.6265 56.8283 72.5094 56.501 72.29C56.1737 72.0706 55.9185 71.7588 55.7679 71.394C55.6172 71.0291 55.5778 70.6277 55.6546 70.2404C55.7314 69.8531 55.921 69.4973 56.1994 69.2181C56.4777 68.9389 56.8324 68.7487 57.2186 68.6717C57.6047 68.5946 58.0049 68.6342 58.3686 68.7853C58.7324 68.9364 59.0433 69.1923 59.262 69.5207C59.4807 69.849 59.5975 70.235 59.5975 70.6299C59.5975 71.1594 59.3877 71.6673 59.0144 72.0417C58.6411 72.4162 58.1348 72.6265 57.6069 72.6265ZM57.6069 70.0534C57.4925 70.0529 57.3806 70.0865 57.2852 70.1499C57.1899 70.2134 57.1156 70.3038 57.0716 70.4097C57.0276 70.5156 57.0159 70.6322 57.0381 70.7448C57.0603 70.8573 57.1153 70.9607 57.1962 71.0418C57.2771 71.1229 57.3802 71.1782 57.4924 71.2004C57.6046 71.2227 57.7209 71.211 57.8265 71.1669C57.932 71.1227 58.0222 71.0481 58.0854 70.9525C58.1487 70.8569 58.1822 70.7446 58.1817 70.6299C58.1791 70.4787 58.1173 70.3347 58.0098 70.2287C57.9023 70.1227 57.7576 70.0634 57.6069 70.0634V70.0534Z" fill="black"/>
<path d="M77.4678 73.4202C75.5469 73.4244 73.6719 72.8315 72.1007 71.723L71.4264 71.2464L71.9987 70.6499C72.6233 69.9794 73.3806 69.447 74.2221 69.0869C75.0635 68.7267 75.9707 68.5468 76.8855 68.5584C79.5753 68.5584 82.0137 70.0085 82.7751 70.7098L83.432 71.3162L82.6855 71.8154C81.1455 72.8618 79.3279 73.4208 77.4678 73.4202ZM73.6807 71.0392C74.8011 71.6475 76.0507 71.9771 77.3245 72.0006C78.5983 72.024 79.8591 71.7406 81.001 71.174C79.7553 70.4291 78.3402 70.0166 76.8905 69.976C75.7319 69.9591 74.6014 70.3336 73.6807 71.0392Z" fill="black"/>
<path d="M77.398 72.6265C77.0043 72.6265 76.6195 72.5094 76.2921 72.29C75.9648 72.0706 75.7097 71.7588 75.559 71.394C75.4083 71.0291 75.3689 70.6277 75.4457 70.2404C75.5225 69.8531 75.7121 69.4973 75.9905 69.2181C76.2689 68.9389 76.6236 68.7487 77.0097 68.6717C77.3958 68.5946 77.7961 68.6342 78.1598 68.7853C78.5235 68.9364 78.8344 69.1923 79.0531 69.5207C79.2719 69.849 79.3886 70.235 79.3886 70.6299C79.3886 71.1594 79.1789 71.6673 78.8056 72.0417C78.4323 72.4162 77.926 72.6265 77.398 72.6265ZM77.398 70.0534C77.2838 70.0534 77.1721 70.0874 77.0771 70.1511C76.9821 70.2149 76.9081 70.3055 76.8645 70.4114C76.8209 70.5174 76.8096 70.6339 76.8321 70.7463C76.8545 70.8587 76.9098 70.9618 76.9907 71.0427C77.0717 71.1236 77.1748 71.1785 77.287 71.2006C77.3991 71.2227 77.5152 71.2108 77.6207 71.1666C77.7261 71.1224 77.8161 71.0478 77.8792 70.9523C77.9424 70.8567 77.9758 70.7445 77.9753 70.6299C77.9727 70.4783 77.9106 70.3338 77.8026 70.2278C77.6945 70.1218 77.5492 70.0627 77.398 70.0634V70.0534Z" fill="black"/>
<path d="M66.0544 130.219L66.0892 130.665H68.9233L68.9581 130.219C68.4754 130.219 67.9927 130.236 67.51 130.236C67.0273 130.236 66.5371 130.229 66.0544 130.219Z" fill="black"/>
<path d="M79.9559 119.629L79.7071 118.236C76.9063 118.75 74.0756 119.083 71.2323 119.235L71.1204 120.665C74.0849 120.513 77.0364 120.167 79.9559 119.629Z" fill="black"/>
<path d="M55.3078 118.236L55.059 119.632C57.9803 120.169 60.9334 120.515 63.8995 120.667L63.7876 119.237C60.9426 119.085 58.1102 118.751 55.3078 118.236Z" fill="black"/>
<path d="M79.9559 124.366L79.7071 122.971C76.7845 123.508 73.8294 123.849 70.8615 123.992L70.7496 125.424C73.8385 125.279 76.9143 124.925 79.9559 124.366Z" fill="black"/>
<path d="M55.3053 122.971L55.0565 124.366C58.0981 124.925 61.1738 125.279 64.2628 125.424L64.1509 123.992C61.183 123.849 58.2279 123.508 55.3053 122.971Z" fill="black"/>
<path d="M55.3053 127.705L55.0565 129.1C58.2223 129.683 61.4251 130.041 64.641 130.174L64.529 128.746C61.4342 128.614 58.3522 128.266 55.3053 127.705Z" fill="black"/>
<path d="M79.9559 129.1L79.7071 127.705C76.6659 128.265 73.5898 128.613 70.5008 128.746L70.3888 130.174C73.5989 130.04 76.7958 129.682 79.9559 129.1Z" fill="black"/>
<path d="M70.8541 123.992L71.1129 120.667L71.2249 119.237L73.0985 95.2231L71.6877 95.1133L69.8016 119.3L69.6896 120.727L69.4309 124.047L69.3189 125.474L69.0601 128.794L68.9506 130.219L68.9158 130.665H66.0892L66.0544 130.219L65.9449 128.794L65.6861 125.474L65.5742 124.047L65.3154 120.727L65.2034 119.3L63.3174 95.1133L61.9066 95.2231L63.7802 119.237L63.8921 120.667L64.1509 123.992L64.2629 125.424L64.5217 128.746L64.6336 130.174L64.7829 132.083H70.2221L70.3714 130.174L70.4834 128.746L70.7422 125.424L70.8541 123.992Z" fill="black"/>
<path d="M54.4717 144.217L54.5787 144.247L54.4717 144.215V144.217Z" fill="black"/>
<path d="M80.6178 144.192L80.4735 144.237L80.6178 144.192Z" fill="black"/>
<path d="M55.885 138.569V132.674V89.9296C55.3654 89.1452 54.8935 88.3301 54.4717 87.4887V132.163V138.125V142.735C54.6932 142.807 54.9171 142.877 55.1411 142.944L54.7405 144.295L55.8751 144.612V138.569H55.885Z" fill="black"/>
<path d="M80.6178 142.702V138.093V133.773V132.13L80.5755 102.972V101.4L80.5556 87.4887C80.1339 88.3301 79.662 89.1452 79.1423 89.9296V132.672V138.567V144.612L80.277 144.295L79.8714 142.939C80.1202 142.865 80.369 142.785 80.6178 142.702Z" fill="black"/>
<path d="M21.0975 87.2142V87.9629H20.6521C20.5476 89.1684 19.7215 90.4262 17.9599 90.4262C17.2642 90.4559 16.5844 90.2123 16.0649 89.7472C15.5455 89.2821 15.2273 88.6322 15.1781 87.9355H14.7327V87.1868H15.1781C15.2751 85.9563 16.1733 84.7234 17.9151 84.7234C19.6568 84.7234 20.5476 85.9564 20.6521 87.2042L21.0975 87.2142ZM20.0898 87.2142C20.0101 86.3706 19.2736 85.5346 17.925 85.5346C16.5217 85.5346 15.8026 86.3806 15.723 87.2142H20.0898ZM15.723 87.9629C15.7752 88.7266 16.5117 89.6426 17.9325 89.6426C19.2313 89.6426 19.9828 88.824 20.0898 87.9629H15.723Z" fill="black"/>
<path d="M21.0975 80.0164V80.7652H20.6521C20.5476 81.9706 19.7215 83.2285 17.9599 83.2285C17.264 83.2588 16.5839 83.0154 16.0643 82.5502C15.5447 82.0849 15.2267 81.4346 15.1781 80.7377H14.7327V79.989H15.1781C15.2751 78.7586 16.1733 77.5282 17.9151 77.5282C19.6568 77.5282 20.5476 78.7586 20.6521 80.0064L21.0975 80.0164ZM20.0898 80.0164C20.0101 79.1729 19.2736 78.3368 17.925 78.3368C16.5217 78.3368 15.8026 79.1803 15.723 80.0164H20.0898ZM15.723 80.7652C15.7752 81.5313 16.5117 82.4448 17.9325 82.4448C19.2313 82.4448 19.9828 81.6262 20.0898 80.7652H15.723Z" fill="black"/>
<path d="M21.0975 72.8312V73.5799H20.6521C20.5476 74.7853 19.7215 76.0432 17.9599 76.0432C17.2642 76.0729 16.5844 75.8293 16.0649 75.3642C15.5455 74.8991 15.2273 74.2491 15.1781 73.5524H14.7327V72.8037H15.1781C15.2751 71.5733 16.1733 70.3429 17.9151 70.3429C19.6568 70.3429 20.5476 71.5733 20.6521 72.8212L21.0975 72.8312ZM20.0898 72.8312C20.0101 71.9851 19.2736 71.1515 17.925 71.1515C16.5217 71.1515 15.8026 71.9951 15.723 72.8312H20.0898ZM15.723 73.5799C15.7752 74.3436 16.5117 75.2595 17.9325 75.2595C19.2313 75.2595 19.9828 74.4409 20.0898 73.5799H15.723Z" fill="black"/>
<path d="M21.3986 65.9778L21.3214 66.7115L20.8686 66.6641C20.6397 67.8521 19.6892 69.0176 17.9375 68.8329C17.2463 68.7905 16.5985 68.4806 16.1306 67.9684C15.6627 67.4563 15.4113 66.782 15.4294 66.0876L14.9915 66.0427L15.0686 65.3064L15.504 65.3539C15.728 64.1384 16.7481 63.0054 18.4899 63.1875C20.2316 63.3697 20.9781 64.685 20.9557 65.9329L21.3986 65.9778ZM15.9668 66.1375C15.9395 66.9062 16.5789 67.8846 17.9922 68.0393C19.2811 68.1741 20.1172 67.4403 20.3112 66.5942L15.9668 66.1375ZM20.3859 65.858C20.3859 65.0119 19.7489 64.111 18.3953 63.9637C16.9994 63.8165 16.1957 64.5827 16.0315 65.4038L20.3859 65.858Z" fill="black"/>
<path d="M113.659 66.4295L113.579 65.6958L114.032 65.6459C114.005 64.4354 114.686 63.0952 116.436 62.9005C117.122 62.7947 117.822 62.9604 118.388 63.3628C118.955 63.7652 119.343 64.3726 119.471 65.0569L119.907 65.0095L119.986 65.7432L119.551 65.7906C119.591 67.026 118.837 68.3488 117.102 68.536C115.368 68.7231 114.353 67.6 114.116 66.3721L113.659 66.4295ZM118.921 65.1118C118.784 64.3631 117.953 63.5295 116.54 63.6867C115.251 63.829 114.592 64.7249 114.582 65.5935L118.921 65.1118ZM114.661 66.3272C114.833 67.1583 115.657 67.907 116.998 67.7573C118.391 67.6025 119.013 66.6866 119.001 65.8455L114.661 66.3272Z" fill="black"/>
<path d="M113.903 73.2679V72.5192H114.358C114.462 71.3162 115.286 70.0584 117.05 70.0584C117.744 70.0286 118.422 70.2709 118.941 70.734C119.46 71.197 119.778 71.8445 119.829 72.5391H120.267V73.2754H119.829C119.732 74.5083 118.834 75.7387 117.092 75.7387C115.351 75.7387 114.462 74.5083 114.355 73.2579L113.903 73.2679ZM119.277 72.5391C119.225 71.7729 118.488 70.8595 117.068 70.8595C115.769 70.8595 115.015 71.6781 114.91 72.5391H119.277ZM114.91 73.2879C114.99 74.1314 115.726 74.9675 117.075 74.9675C118.478 74.9675 119.197 74.1239 119.277 73.2879H114.91Z" fill="black"/>
<path d="M113.903 80.4632V79.7144H114.358C114.462 78.509 115.286 77.2511 117.05 77.2511C117.744 77.222 118.422 77.4645 118.94 77.9275C119.459 78.3904 119.778 79.0375 119.829 79.7319H120.267V80.4806H119.829C119.732 81.7135 118.834 82.9439 117.092 82.9439C115.351 82.9439 114.462 81.7135 114.355 80.4632H113.903ZM119.277 79.7344C119.225 78.9682 118.488 78.0548 117.068 78.0548C115.769 78.0548 115.015 78.8709 114.91 79.7344H119.277ZM114.91 80.4831C114.99 81.3267 115.726 82.1628 117.075 82.1628C118.478 82.1628 119.197 81.3192 119.277 80.4831H114.91Z" fill="black"/>
<path d="M113.903 87.6584V86.9097H114.358C114.462 85.7042 115.286 84.4464 117.05 84.4464C117.744 84.4172 118.422 84.6598 118.94 85.1227C119.459 85.5857 119.778 86.2327 119.829 86.9272H120.267V87.6759H119.829C119.732 88.9063 118.834 90.1392 117.092 90.1392C115.351 90.1392 114.462 88.9063 114.355 87.6584H113.903ZM119.277 86.9272C119.225 86.1635 118.488 85.2475 117.068 85.2475C115.769 85.2475 115.015 86.0661 114.91 86.9272H119.277ZM114.91 87.6759C114.99 88.522 115.726 89.3555 117.075 89.3555C118.478 89.3555 119.197 88.512 119.277 87.6759H114.91Z" fill="black"/>
<path d="M67.5 172C49.5981 171.999 32.4296 164.866 19.771 152.169C7.11246 139.472 0.000659991 122.251 1.21733e-07 104.295L1.21733e-07 67.7046C-0.000801504 54.3136 3.95751 41.2231 11.3743 30.0887C18.7912 18.9542 29.3333 10.276 41.6676 5.15156C54.0019 0.0271013 67.5742 -1.31343 80.668 1.2995C93.7619 3.91243 105.789 10.3615 115.229 19.831C121.517 26.1029 126.502 33.5636 129.896 41.7812C133.289 49.9987 135.024 58.8099 135 67.7046V104.295C134.999 122.251 127.888 139.472 115.229 152.169C102.57 164.866 85.4019 171.999 67.5 172ZM67.5 1.4173C58.8213 1.41697 50.2275 3.13132 42.2093 6.46245C34.1912 9.79358 26.9057 14.6763 20.7689 20.8317C14.6321 26.9871 9.76424 34.2947 6.44319 42.3371C3.12213 50.3796 1.41297 58.9995 1.4133 67.7046V104.295C1.41404 117.405 5.29036 130.22 12.5521 141.12C19.8139 152.02 30.1349 160.516 42.2102 165.533C54.2855 170.55 67.5728 171.862 80.3918 169.305C93.2109 166.747 104.986 160.435 114.228 151.165C120.384 145.024 125.265 137.72 128.587 129.675C131.91 121.629 133.608 113.003 133.584 104.295V67.7046C133.585 58.9997 131.875 50.38 128.555 42.3377C125.234 34.2954 120.366 26.9879 114.229 20.8325C108.093 14.6772 100.808 9.79444 92.7899 6.46316C84.772 3.13189 76.1785 1.4173 67.5 1.4173Z" fill="black"/>
<path d="M67.5 167.745C50.7232 167.744 34.6338 161.059 22.7708 149.16C10.9079 137.261 4.24303 121.123 4.24237 104.295V67.7049C4.24215 55.1556 7.95202 42.888 14.9028 32.4536C21.8537 22.0191 31.7332 13.8865 43.2922 9.08402C54.8511 4.28158 67.5703 3.02507 79.8412 5.47338C92.1122 7.92169 103.384 13.9649 112.23 22.8387C118.122 28.7172 122.794 35.7094 125.974 43.4106C129.154 51.1118 130.78 59.3692 130.758 67.7049V104.295C130.757 121.123 124.092 137.261 112.229 149.16C100.366 161.059 84.2767 167.744 67.5 167.745ZM67.5 5.67286C33.4116 5.67286 5.65567 33.5005 5.65567 67.7049V104.295C5.65567 138.499 33.3991 166.325 67.5 166.325C101.601 166.325 129.342 138.499 129.342 104.295V67.7049C129.342 33.5005 101.601 5.67286 67.5 5.67286Z" fill="black"/>
<path d="M30.5826 33.7127L32.8692 32.1104L32.9986 32.2951C33.265 32.6656 33.4754 33.0734 33.6231 33.5055C33.734 33.886 33.767 34.285 33.7202 34.6785C33.6733 35.1301 33.5275 35.5656 33.293 35.954C33.0586 36.3423 32.7413 36.6738 32.3641 36.9247C31.9954 37.1895 31.5761 37.3752 31.1326 37.4701C30.689 37.565 30.2307 37.5671 29.7863 37.4763C29.1024 37.3503 28.471 37.0237 27.9721 36.5378C27.4732 36.052 27.1291 35.4286 26.9834 34.7466C26.8377 34.0645 26.897 33.3545 27.1536 32.7062C27.4103 32.0579 27.8528 31.5006 28.4253 31.1046C28.8417 30.8091 29.3186 30.6104 29.8212 30.5231C30.377 30.4526 30.9412 30.4942 31.4808 30.6454L31.2842 31.6437C30.4084 31.3542 29.6437 31.4374 28.9901 31.8933C28.712 32.0794 28.4752 32.321 28.2945 32.6032C28.1138 32.8853 27.9932 33.2019 27.9401 33.533C27.8801 33.8656 27.8887 34.2071 27.9653 34.5363C28.0419 34.8656 28.1849 35.1755 28.3855 35.4472C28.7633 35.9877 29.3358 36.3599 29.982 36.4852C30.6282 36.6104 31.2976 36.479 31.8491 36.1186C32.2576 35.8341 32.5487 35.41 32.6677 34.9256C32.7352 34.6952 32.7564 34.4536 32.7299 34.215C32.7034 33.9763 32.6298 33.7453 32.5134 33.5355L31.1325 34.5013L30.5826 33.7127Z" fill="black"/>
<path d="M34.5238 31.2219C34.3094 30.8153 34.1814 30.3684 34.148 29.9096C34.1146 29.4508 34.1765 28.99 34.3297 28.5564C34.4681 28.1117 34.6948 27.6998 34.9963 27.3455C35.2978 26.9912 35.6678 26.7018 36.0839 26.4949C36.9126 26.0737 37.8733 25.9967 38.7581 26.2807C39.6429 26.5647 40.3806 27.1868 40.8115 28.0124C41.0292 28.4204 41.16 28.8694 41.1956 29.3308C41.2311 29.7922 41.1707 30.2561 41.018 30.6928C40.7337 31.5547 40.1335 32.276 39.3389 32.7107C38.5443 33.1453 37.6147 33.2608 36.7383 33.0338C36.2579 32.9165 35.8097 32.6929 35.4265 32.3794C35.0434 32.0659 34.7349 31.6704 34.5238 31.2219ZM35.442 30.7602C35.6598 31.2123 36.008 31.5885 36.4414 31.8399C36.8748 32.0914 37.3735 32.2066 37.8728 32.1705C38.3722 32.1345 38.8493 31.9489 39.2424 31.6379C39.6355 31.3268 39.9264 30.9045 40.0775 30.4258C40.2736 29.7759 40.2114 29.0752 39.9038 28.4704C39.5963 27.8656 39.0674 27.4036 38.4278 27.1813C37.7923 26.9794 37.103 27.0381 36.5104 27.3444C35.9178 27.6507 35.4702 28.1797 35.2653 28.816C35.1604 29.1349 35.1219 29.4721 35.1523 29.8065C35.1827 30.1409 35.2813 30.4656 35.442 30.7602Z" fill="black"/>
<path d="M42.5209 27.2312C42.363 26.7996 42.2963 26.3397 42.325 25.8809C42.3537 25.422 42.4772 24.9742 42.6876 24.5657C42.8857 24.1443 43.1665 23.7673 43.5132 23.4572C43.86 23.1472 44.2655 22.9105 44.7055 22.7613C45.5835 22.4566 46.5457 22.511 47.384 22.9127C48.2222 23.3144 48.869 24.0311 49.1843 24.9076C49.3456 25.3417 49.4148 25.8048 49.3874 26.2672C49.3599 26.7297 49.2365 27.1812 49.0251 27.5931C48.6286 28.4093 47.9377 29.0439 47.0922 29.3682C46.2467 29.6926 45.31 29.6826 44.4716 29.3401C44.0101 29.1571 43.5952 28.8727 43.2577 28.5077C42.9201 28.1428 42.6683 27.7066 42.5209 27.2312ZM43.4938 26.9017C43.5967 27.2309 43.7678 27.5344 43.996 27.7925C44.2241 28.0506 44.5041 28.2573 44.8175 28.3992C45.1061 28.5413 45.4202 28.6237 45.7412 28.6417C46.0622 28.6598 46.3835 28.6129 46.6861 28.504C47.0024 28.399 47.2938 28.2301 47.5424 28.0078C47.7911 27.7854 47.9916 27.5143 48.1318 27.2112C48.4095 26.5946 48.4398 25.8943 48.2165 25.2558C47.9932 24.6173 47.5334 24.0896 46.9325 23.7821C46.3322 23.4948 45.6431 23.4572 45.0153 23.6774C44.3875 23.8976 43.8719 24.3577 43.5809 24.9576C43.4338 25.2582 43.3501 25.586 43.3351 25.9205C43.3201 26.2551 43.3741 26.5891 43.4938 26.9017Z" fill="black"/>
<path d="M52.0234 27.6704L50.5678 21.0567L51.9512 20.7497C52.4782 20.6144 53.0232 20.563 53.5661 20.5975C54.013 20.6377 54.4455 20.7766 54.8326 21.0043C55.2313 21.2528 55.5758 21.5796 55.8455 21.965C56.1151 22.3505 56.3043 22.7866 56.4017 23.2472C56.4991 23.7078 56.5026 24.1834 56.4121 24.6455C56.3216 25.1075 56.139 25.5464 55.8751 25.9359C55.6168 26.3023 55.2845 26.6101 54.8998 26.8393C54.4264 27.0924 53.917 27.2709 53.3894 27.3684L52.0234 27.6704ZM52.8122 26.5124L53.26 26.4126C53.6384 26.3383 54.0033 26.2071 54.3424 26.0232C54.6185 25.8578 54.8568 25.6359 55.0416 25.3718C55.2348 25.0968 55.3661 24.7829 55.4262 24.4519C55.4864 24.121 55.474 23.7808 55.3899 23.4551C55.3297 23.1234 55.1989 22.8086 55.0066 22.5322C54.8142 22.2557 54.5648 22.024 54.2752 21.8528C53.7527 21.5467 53.0668 21.4876 52.2175 21.6756L51.7671 21.773L52.8122 26.5124Z" fill="black"/>
<path d="M62.0309 20.1283L61.2671 20.7148C61.1424 20.5189 60.9715 20.3569 60.7694 20.2431C60.5889 20.1635 60.3894 20.1375 60.1946 20.1682C59.9379 20.1883 59.6978 20.303 59.5203 20.4902C59.4404 20.5713 59.38 20.6697 59.3438 20.7779C59.3076 20.886 59.2965 21.001 59.3113 21.1141C59.3486 21.4435 59.6224 21.6781 60.1324 21.8229L60.8341 22.0201C61.3127 22.1296 61.7554 22.3598 62.1205 22.6889C62.4165 22.994 62.5977 23.3928 62.6331 23.817C62.6749 24.1005 62.6574 24.3896 62.5815 24.666C62.5057 24.9423 62.3732 25.1997 62.1927 25.4218C62.0116 25.6461 61.7871 25.8313 61.5326 25.966C61.2781 26.1007 60.999 26.1822 60.7122 26.2054C60.188 26.2834 59.654 26.1575 59.2193 25.8535C58.7783 25.5101 58.4711 25.0227 58.3509 24.4759L59.3462 24.129C59.3915 24.4164 59.5069 24.6882 59.6821 24.9201C59.7964 25.0343 59.9331 25.1235 60.0836 25.1819C60.2341 25.2403 60.395 25.2667 60.5562 25.2594C60.7174 25.2522 60.8753 25.2114 61.02 25.1396C61.1646 25.0679 61.2928 24.9668 61.3964 24.8428C61.4876 24.7242 61.554 24.5883 61.5917 24.4434C61.6293 24.2984 61.6374 24.1473 61.6154 23.9992C61.6026 23.8776 61.5707 23.7588 61.5208 23.6473C61.471 23.5413 61.4018 23.4457 61.3168 23.3653C61.219 23.2752 61.1083 23.2003 60.9884 23.1432C60.8409 23.0688 60.6868 23.0087 60.5281 22.9635L59.8488 22.7688C58.8858 22.4843 58.3559 21.9701 58.2762 21.2189C58.2461 20.9771 58.2704 20.7316 58.3475 20.5005C58.4246 20.2694 58.5524 20.0586 58.7216 19.8837C59.0786 19.4976 59.5669 19.2599 60.0901 19.2173C60.8648 19.1192 61.5117 19.4228 62.0309 20.1283Z" fill="black"/>
<path d="M67.7861 22.1648C67.8062 21.7054 67.9211 21.2553 68.1237 20.8428C68.3263 20.4304 68.6121 20.0647 68.9631 19.7689C69.3073 19.4556 69.7111 19.2154 70.1502 19.0627C70.5894 18.91 71.0548 18.848 71.5184 18.8804C72.4469 18.9364 73.3157 19.3576 73.9363 20.0525C74.5568 20.7474 74.879 21.6598 74.8327 22.5916C74.8155 23.0544 74.7021 23.5086 74.4999 23.925C74.2977 24.3414 74.011 24.711 73.6583 25.0099C72.9778 25.6081 72.0963 25.9249 71.1919 25.8961C70.2876 25.8674 69.4278 25.4954 68.7864 24.8552C68.4298 24.5103 68.1548 24.0895 67.9817 23.6239C67.8086 23.1583 67.7418 22.6597 67.7861 22.1648ZM68.8113 22.2347C68.7723 22.7349 68.8836 23.2354 69.1309 23.6715C69.3782 24.1077 69.7501 24.4595 70.1986 24.6817C70.6472 24.9038 71.1518 24.986 71.6474 24.9178C72.143 24.8495 72.6068 24.6339 72.979 24.2987C73.4722 23.8371 73.7689 23.2025 73.8074 22.527C73.8459 21.8516 73.6231 21.1872 73.1856 20.6723C72.9691 20.4194 72.7024 20.2146 72.4024 20.071C72.1025 19.9275 71.776 19.8484 71.4438 19.8387C71.1131 19.8142 70.781 19.8583 70.468 19.9682C70.1551 20.0781 69.8681 20.2516 69.6249 20.4777C69.3773 20.6996 69.1774 20.9699 69.0375 21.272C68.8976 21.5741 68.8206 21.9017 68.8113 22.2347Z" fill="black"/>
<path d="M80.6875 21.0941L78.3784 20.7148L78.1122 22.3195L80.3516 22.6939L80.1948 23.6423L77.9555 23.2679L77.418 26.455L76.4103 26.2853L77.5175 19.6042L80.8443 20.1582L80.6875 21.0941Z" fill="black"/>
<path d="M89.9536 23.5999L87.3708 22.7837L86.8856 24.3361L89.3912 25.1298L89.1051 26.0457L86.5895 25.2545L85.9127 27.4134L88.4955 28.2295L88.2068 29.1454L84.6537 28.0223L86.6791 21.5608L90.2347 22.6839L89.9536 23.5999Z" fill="black"/>
<path d="M94.5518 27.92L97.1072 29.0456L97.0176 29.2502C96.8399 29.6712 96.6018 30.0638 96.311 30.4158C96.0462 30.7097 95.7234 30.9452 95.363 31.1071C94.9542 31.3012 94.5076 31.4019 94.0554 31.4019C93.6032 31.4019 93.1566 31.3012 92.7478 31.1071C92.3302 30.9299 91.9536 30.668 91.6419 30.3376C91.3301 30.0073 91.0899 29.6158 90.9364 29.1878C90.6847 28.536 90.6318 27.8239 90.7844 27.1419C90.9371 26.4598 91.2883 25.8387 91.7936 25.3573C92.2989 24.8759 92.9354 24.5559 93.6223 24.4381C94.3092 24.3203 95.0155 24.4099 95.6516 24.6955C96.1207 24.8985 96.5388 25.2037 96.8758 25.589C97.224 26.0335 97.4819 26.5422 97.6347 27.0864L96.6892 27.4333C96.4802 26.5332 96.0107 25.9217 95.2808 25.599C94.9779 25.4565 94.6487 25.3787 94.3142 25.3706C93.9796 25.3624 93.6471 25.424 93.3375 25.5515C93.0234 25.6734 92.7375 25.8585 92.4974 26.0954C92.2573 26.3323 92.0682 26.6161 91.9417 26.9292C91.7929 27.2475 91.7158 27.5947 91.7158 27.9462C91.7158 28.2977 91.7929 28.6449 91.9417 28.9632C92.1739 29.5326 92.6133 29.9921 93.1708 30.2485C93.6255 30.4498 94.1376 30.4782 94.6115 30.3284C94.8432 30.2666 95.0602 30.1591 95.2499 30.0121C95.4396 29.8651 95.5982 29.6816 95.7163 29.4724L94.1761 28.7935L94.5518 27.92Z" fill="black"/>
<path d="M99.6899 31.1969V26.757L100.705 27.3435V30.4632L103.392 28.8909L104.41 29.4774L100.573 31.6961L99.1176 34.2318L98.2343 33.7326L99.6899 31.1969Z" fill="black"/>
<path d="M104.524 34.4415L102.947 36.6876L102.113 36.1011L105.997 30.5531L106.943 31.2169C107.302 31.4547 107.632 31.7355 107.923 32.053C108.116 32.2864 108.244 32.5659 108.297 32.8641C108.346 33.1267 108.34 33.3967 108.281 33.657C108.221 33.9173 108.107 34.1623 107.948 34.3766C107.8 34.6102 107.601 34.8077 107.367 34.9545C107.133 35.1013 106.869 35.1937 106.595 35.2251C105.989 35.266 105.39 35.0801 104.913 34.7035L104.524 34.4415ZM105.067 33.6678L105.378 33.8849C106.144 34.4273 106.734 34.4015 107.147 33.8075C107.56 33.2135 107.366 32.6495 106.565 32.1154L106.289 31.9207L105.067 33.6678Z" fill="black"/>
<path d="M111.596 36.0063L107.889 40.4712L107.105 39.8173L110.815 35.3524L109.62 34.3541L110.232 33.6053L113.4 36.2484L112.785 36.9971L111.596 36.0063Z" fill="black"/>
</g>
<defs>
<clipPath id="clip0">
<rect width="135" height="172" fill="white"/>
</clipPath>
</defs>
</svg>
